# xmcd
#
# Track frame offsets: 
#        150
#        24525
#        36971
#        56600
#        71958
#        93571
#        109370
#        126361
#        139753
#
# Disc length: 2087 seconds
#
# Revision: 0
# Processed by: cddbd v1.5.2PL0 Copyright (c) Steve Scherf et al.
# Submitted via: ExactAudioCopy v0.99pb4
#
DISCID=89082509
DTITLE=Dramatics - A Dramatic Experience
DYEAR=1973
DGENRE=Soul
TTITLE0=The Devil Is Dope
TTITLE1=You Could Become The Very Heart Of Me
TTITLE2=Now You Got Me Loving You
TTITLE3=Fell For You
TTITLE4=Jim, What's Wrong With Him?
TTITLE5=Hey You! Get Off My Mountain
TTITLE6=Beautiful People
TTITLE7=Beware Of The Man (With The Candy In His Hand)
TTITLE8=Stand Up Clap Your Hands [Bonustrack]
EXTD=© 2004\nLabel: Stax Records (Fantasy Inc.]\nSCD24 4131-2\n24 BIT 
EXTD=Remastered and 1 Bonus Track
EXTT0=
EXTT1=
EXTT2=
EXTT3=
EXTT4=
EXTT5=
EXTT6=
EXTT7=
EXTT8=
PLAYORDER=
